<?xml version="1.0" encoding="UTF-8"?>
<svg id="Layer_1" xmlns="http://www.w3.org/2000/svg" version="1.1" viewBox="0 0 2097 1866.2">
  <!-- Generator: Adobe Illustrator 29.0.0, SVG Export Plug-In . SVG Version: 2.1.0 Build 186)  -->
  <defs>
    <style>
      .st0 {
        fill: #d5b263;
      }
    </style>
  </defs>
  <path class="st0" d="M925.1,210.2c8.4,0,16.8-3.4,25.3-10.1l57.3-57.3v325.1c0,20.2,15.2,35.4,35.4,35.4s35.4-15.2,35.4-35.4V142.8l57.3,57.3c13.5,13.5,35.4,13.5,48.8,0h0c13.5-13.5,13.5-35.4,0-48.8l-116.2-116.2c-3.4-3.4-6.7-5.1-11.8-8.4h0c-8.4-3.4-16.8-3.4-25.3,0h0c-5.1,1.7-8.4,5.1-11.8,8.4l-116.2,116.2c-13.5,13.5-13.5,35.4,0,48.8,6.7,6.7,15.2,10.1,25.3,10.1M382.8,1547.4l-274.5,143.2,21.9-84.2c6.7-18.5-3.4-38.7-21.9-43.8-18.5-6.7-38.7,3.4-43.8,21.9v5.1l-40.4,160h0v15.2l3.4,6.7h0v3.4h0c0,3.4,3.4,5.1,5.1,6.7h0c3.4,5.1,8.4,6.7,11.8,8.4h1.7l160,40.4h8.4c20.2,0,35.4-16.8,35.4-35.4s-10.1-30.3-25.3-33.7l-72.4-18.5,262.7-138.1c16.8-8.4,23.6-30.3,15.2-47.2-8.4-16.8-30.3-23.6-47.2-15.2M2072.1,1758h0v-5.1h0c0-1.7-40.4-161.7-40.4-161.7-5.1-18.5-23.6-30.3-42.1-25.3-18.5,5.1-30.3,23.6-25.3,42.1h0l21.9,84.2-281.3-144.8c-16.8-8.4-38.7-1.7-47.2,15.2-8.4,16.8-1.7,38.7,15.2,47.2l267.8,138.1-70.7,18.5c-18.5,6.7-28.6,25.3-21.9,43.8,5.1,16.8,21.9,26.9,38.7,23.6l160-40.4h0c5.1-1.7,10.1-5.1,15.2-8.4h0c1.7-3.4,3.4-5.1,5.1-8.4h0v-6.7l1.7-3.4v-6.7h0l3.4-1.7ZM1416.9,791.2l-281.3-139.8v-101.1h-186.9v101.1l-281.3,139.8v-6.7h-186.9v186.9h58.9v397.5h-58.9v186.9h186.9v-6.7l281.3,139.8v101.1h186.9v-101.1l281.3-139.8v6.7h186.9v-186.9h-58.9v-397.5h58.9v-186.9h-186.9v8.4-1.7ZM948.7,728.9v8.4h186.9v-8.4l281.3,139.8v15.2l-281.3,139.8v-6.7h-186.9v6.7l-281.3-139.8v-15.2s281.3-139.8,281.3-139.8ZM669.1,1470v-101.1h-58.9v-397.5h58.9v-6.7l281.3,139.8v101.1h58.9v397.5h-58.9v6.7l-281.3-139.8ZM1475.9,1368.9h-58.9v101.1l-281.3,139.8v-6.7h-58.9v-397.5h58.9v-101.1l281.3-139.8v6.7h58.9v397.5Z"/>
</svg>