<?xml version="1.0" encoding="UTF-8"?>
<svg id="Layer_1" xmlns="http://www.w3.org/2000/svg" version="1.1" viewBox="0 0 560 271">
  <!-- Generator: Adobe Illustrator 29.0.0, SVG Export Plug-In . SVG Version: 2.1.0 Build 186)  -->
  <defs>
    <style>
      .st0 {
        fill: none;
      }

      .st1 {
        fill-opacity: 0;
        stroke: #000;
        stroke-opacity: 0;
      }

      .st2 {
        fill: #d5b263;
      }
    </style>
  </defs>
  <g>
    <rect class="st0" x="171" y="5" width="378.9" height="261.1"/>
    <path class="st2" d="M209.9,113.3c-4.4,0-8.7-.9-12.8-2.7-4.1-1.8-7.8-4.5-11-8.2-3.3-3.7-5.8-8.3-7.8-14-1.9-5.7-2.9-12.4-2.9-20.1s1.6-17,4.8-23.4c3.2-6.3,7.5-11.1,12.9-14.4,5.4-3.3,11.4-4.9,18-4.9s8.1.4,10.9,1.3c2.8.8,5.1,1.9,6.7,3,1.7,1.2,3.1,2.2,4.1,3.2l-6.8,12.8c-1.7-1.9-3.6-3.4-5.4-4.6-1.9-1.2-4.8-1.7-8.9-1.7s-7.7,1.2-10.6,3.6c-2.9,2.4-5.1,5.7-6.6,9.9-1.5,4.2-2.3,9-2.3,14.4,0,10.6,1.8,18.6,5.3,23.9,3.5,5.4,7.8,8.1,12.8,8.1s7.1-.5,9.8-1.6c2.7-1.1,4.7-2.3,6.1-3.7l6.7,12c-1.1.9-2.6,2-4.5,3.1s-4.3,2.1-7.4,2.9c-3,.8-6.8,1.2-11.3,1.2M256.2,113.6c-3.7,0-6.8-.8-9.3-2.5s-4.3-3.9-5.5-6.6c-1.2-2.8-1.8-5.8-1.8-9.1s.5-3.9,1.4-6.1,2.6-4.4,5.1-6.4c2.4-2,5.9-3.7,10.3-5s10.1-1.9,17-1.9v-2.8c0-3-.7-5.5-2.2-7.5-1.4-2-4.3-3-8.7-3s-6.3.5-9.3,1.6-5.2,2.4-6.7,4l-4.9-11.7c2.4-1.7,5.7-3.2,9.8-4.6,4.1-1.4,8.6-2.1,13.6-2.1s10.7.9,14,2.7,5.7,4.4,7,7.7,2,7.3,2,11.8v39.8h-13l-1.1-8.6c-4.2,6.9-10.2,10.3-17.9,10.3M262.7,101.9c1.8,0,3.8-.7,5.9-2.2s3.7-3.4,5-5.7v-8.6c-.4,0-.8,0-1.3,0h-1.6c-2.2,0-4.6.3-7,.8-2.5.5-4.5,1.4-6.2,2.6-1.7,1.3-2.6,3-2.6,5.2s.6,5,1.9,6.2,3.3,1.8,6,1.8M324.8,113.6c-4.9,0-9.2-1.3-12.8-3.9-3.6-2.6-6.4-6.3-8.4-11.1-2-4.8-2.9-10.4-2.9-16.8,0-10,2-17.8,6.1-23.4s10.1-8.5,18.2-8.5,7.6,1,10.5,3.1,4.7,5,5.6,8.8l-1.1-8.9V19.5h14.3v92.4h-13.3v-12.4c-1.1,4.2-3,7.6-5.8,10.2s-6.3,3.9-10.5,3.9M328.4,101.5c2.9,0,5.5-1.5,7.8-4.6s3.5-8.1,3.5-15-.9-11.2-2.7-14.6c-1.8-3.4-4.5-5.2-8.3-5.2s-3.8.6-5.7,1.8c-1.9,1.2-3.5,3.2-4.7,6-1.3,2.9-1.9,6.8-1.9,11.8s1.2,11.7,3.5,14.9c2.3,3.3,5.1,4.9,8.5,4.9M205.4,236h-1.9l-33.7-85.2h16.9l13.4,37.3,4.7,14.2,4.7-14.2,12.9-37.3h16.7l-33.6,85.2h-.1ZM263.3,165.1h-17v-16.2h17v16.2ZM262.7,235.5h-15.8v-60.6h15.8v60.6ZM305.4,237.1c-6.8,0-12.3-1.4-16.5-4.3-4.2-2.9-7.2-6.6-9.1-11.4-1.9-4.7-2.9-9.9-2.9-15.5s1.1-11.3,3.3-16.2c2.2-4.9,5.3-8.9,9.5-11.8,4.2-3,9.3-4.4,15.4-4.4,9.1,0,15.4,2.6,19,7.9,3.6,5.3,5.4,12.7,5.4,22.3s0,1.9,0,3.2,0,2.4-.2,3.3h-36.5c.2,4.8,1.6,8.5,4,11.3,2.5,2.7,6.1,4.1,11,4.1s5.2-.6,8.1-1.7c2.9-1.1,5-2.5,6.4-4l4.9,11.6c-1.6,1.1-4.2,2.3-7.7,3.7s-8.2,2-14.2,2M292.7,200.8h21.4c0-4.3-.4-7.5-1.1-9.8-.8-2.3-1.8-3.8-3.1-4.6-1.3-.9-2.8-1.3-4.4-1.3-4.1,0-7.2,1.5-9.3,4.6-2.1,3.1-3.2,6.8-3.5,11.1M367.1,235.5h-12.2l-19.3-60.6h15.4l7.3,28.8,3.2,12.8,2.7-12.8,7.9-28.8h12.6l8.4,28.8,3.2,12.8,2.8-12.8,7.1-28.8h15l-19.1,60.6h-12.3l-9.7-33-1.9-9.8-1.9,9.8-9,33h-.2ZM455.4,237.1c-6.8,0-12.3-1.4-16.5-4.3-4.2-2.9-7.2-6.6-9.1-11.4-1.9-4.7-2.9-9.9-2.9-15.5s1.1-11.3,3.3-16.2c2.2-4.9,5.3-8.9,9.5-11.8,4.2-3,9.3-4.4,15.4-4.4,9.1,0,15.4,2.6,19,7.9,3.6,5.3,5.4,12.7,5.4,22.3s0,1.9,0,3.2,0,2.4-.2,3.3h-36.5c.2,4.8,1.6,8.5,4,11.3,2.5,2.7,6.1,4.1,11,4.1s5.2-.6,8.1-1.7c2.9-1.1,5-2.5,6.4-4l4.9,11.6c-1.6,1.1-4.2,2.3-7.7,3.7s-8.2,2-14.2,2M442.8,200.8h21.4c0-4.3-.4-7.5-1.1-9.8-.8-2.3-1.8-3.8-3.1-4.6-1.3-.9-2.8-1.3-4.4-1.3-4.1,0-7.2,1.5-9.3,4.6-2.1,3.1-3.2,6.8-3.5,11.1M508.6,235.5h-15.2v-60.6h13.7l.7,10.7c.6-1.6,1.7-3.3,3-5,1.4-1.8,3.2-3.3,5.7-4.5,2.4-1.2,5.5-1.9,9.3-1.9s2.2,0,3.1.2c.9.2,1.7.4,2.5.7l-3.4,15.9c-1.3-1.3-3.3-1.9-6-1.9s-5.7.6-7.7,1.9c-2,1.3-3.5,2.7-4.4,4.3-1,1.6-1.4,2.8-1.4,3.6v36.5h.1ZM63.8,93.6c.5,0,1-.2,1.5-.6l3.4-3.4v19.3c0,1.2.9,2.1,2.1,2.1s2.1-.9,2.1-2.1v-19.3l3.4,3.4c.8.8,2.1.8,2.9,0h0c.8-.8.8-2.1,0-2.9l-6.9-6.9c-.2-.2-.4-.3-.7-.5h0c-.5-.2-1-.2-1.5,0h0c-.3,0-.5.3-.7.5l-6.9,6.9c-.8.8-.8,2.1,0,2.9s.9.6,1.5.6M31.6,173l-16.3,8.5,1.3-5c.4-1.1-.2-2.3-1.3-2.6-1.1-.4-2.3.2-2.6,1.3v.3l-2.4,9.5h0v.9l.2.4h0v.2h0c0,.2.2.3.3.4h0c.2.3.5.4.7.5h0l9.5,2.4h.5c1.2,0,2.1-1,2.1-2.1s-.6-1.8-1.5-2l-4.3-1.1,15.6-8.2c1-.5,1.4-1.8.9-2.8s-1.8-1.4-2.8-.9M131.9,185.5h0v-.3h0c0-.1-2.4-9.6-2.4-9.6-.3-1.1-1.4-1.8-2.5-1.5s-1.8,1.4-1.5,2.5h0l1.3,5-16.7-8.6c-1-.5-2.3-.1-2.8.9s-.1,2.3.9,2.8l15.9,8.2-4.2,1.1c-1.1.4-1.7,1.5-1.3,2.6.3,1,1.3,1.6,2.3,1.4l9.5-2.4h0c.3-.1.6-.3.9-.5h0c.1-.2.2-.3.3-.5h0v-.6c.1,0,.1-.2.1-.2v-.2h.2ZM93,128.1l-16.7-8.3v-6h-11.1v6l-16.7,8.3v-.4h-11.1v11.1h3.5v23.6h-3.5v11.1h11.1v-.4l16.7,8.3v6h11.1v-6l16.7-8.3v.4h11.1v-11.1h-3.5v-23.6h3.5v-11.1h-11.1v.5h0ZM65.2,124.4v.5h11.1v-.5l16.7,8.3v.9l-16.7,8.3v-.4h-11.1v.4l-16.7-8.3v-.9s16.7-8.3,16.7-8.3ZM48.6,168.4v-6h-3.5v-23.6h3.5v-.4l16.7,8.3v6h3.5v23.6h-3.5v.4s-16.7-8.3-16.7-8.3ZM96.5,162.4h-3.5v6l-16.7,8.3v-.4h-3.5v-23.6h3.5v-6l16.7-8.3v.4h3.5v23.6Z"/>
  </g>
  <path class="st1" d="M0,0h560v271H0V0Z"/>
</svg>